<svg width="121" height="45" viewBox="0 0 121 45" fill="none" xmlns="http://www.w3.org/2000/svg">
<path d="M67.9665 13.2994L61.7987 30.1163H57.7028L51.535 13.2994H55.149L59.7748 26.671L64.3766 13.2994H67.9665ZM70.9766 15.1786C70.3823 15.1786 69.8844 14.9939 69.4828 14.6245C69.0973 14.239 68.9046 13.7652 68.9046 13.203C68.9046 12.6408 69.0973 12.175 69.4828 11.8056C69.8844 11.4201 70.3823 11.2274 70.9766 11.2274C71.5709 11.2274 72.0608 11.4201 72.4463 11.8056C72.8478 12.175 73.0486 12.6408 73.0486 13.203C73.0486 13.7652 72.8478 14.239 72.4463 14.6245C72.0608 14.9939 71.5709 15.1786 70.9766 15.1786ZM72.639 16.7688V30.1163H69.266V16.7688H72.639ZM80.3565 30.3331C79.2643 30.3331 78.2845 30.1404 77.4172 29.7549C76.5498 29.3534 75.8591 28.8153 75.3452 28.1407C74.8472 27.4661 74.5742 26.7192 74.526 25.9H77.9231C77.9874 26.414 78.2363 26.8397 78.67 27.177C79.1197 27.5143 79.6739 27.6829 80.3324 27.6829C80.9749 27.6829 81.4728 27.5544 81.8262 27.2974C82.1956 27.0404 82.3803 26.7112 82.3803 26.3096C82.3803 25.8759 82.1555 25.5547 81.7057 25.3459C81.272 25.121 80.5734 24.8801 79.6096 24.6231C78.6138 24.3822 77.7946 24.1332 77.1521 23.8762C76.5257 23.6192 75.9796 23.2257 75.5138 22.6956C75.0641 22.1656 74.8392 21.4508 74.8392 20.5514C74.8392 19.8125 75.048 19.1379 75.4656 18.5275C75.8993 17.9172 76.5097 17.4353 77.2967 17.082C78.0998 16.7286 79.0394 16.5519 80.1156 16.5519C81.7057 16.5519 82.9746 16.9535 83.9223 17.7566C84.8699 18.5436 85.392 19.6117 85.4883 20.9609H82.2599C82.2117 20.4309 81.9868 20.0133 81.5853 19.7081C81.1998 19.3869 80.6778 19.2262 80.0192 19.2262C79.4089 19.2262 78.935 19.3387 78.5977 19.5636C78.2765 19.7884 78.1159 20.1016 78.1159 20.5032C78.1159 20.9529 78.3407 21.2983 78.7905 21.5392C79.2402 21.764 79.9389 21.9969 80.8866 22.2379C81.8503 22.4788 82.6454 22.7278 83.2718 22.9848C83.8982 23.2418 84.4363 23.6433 84.886 24.1894C85.3518 24.7195 85.5927 25.4262 85.6088 26.3096C85.6088 27.0806 85.392 27.7712 84.9583 28.3816C84.5407 28.992 83.9303 29.4738 83.1272 29.8272C82.3402 30.1645 81.4166 30.3331 80.3565 30.3331ZM89.3654 15.1786C88.7711 15.1786 88.2732 14.9939 87.8717 14.6245C87.4862 14.239 87.2934 13.7652 87.2934 13.203C87.2934 12.6408 87.4862 12.175 87.8717 11.8056C88.2732 11.4201 88.7711 11.2274 89.3654 11.2274C89.9597 11.2274 90.4496 11.4201 90.8351 11.8056C91.2367 12.175 91.4374 12.6408 91.4374 13.203C91.4374 13.7652 91.2367 14.239 90.8351 14.6245C90.4496 14.9939 89.9597 15.1786 89.3654 15.1786ZM91.0278 16.7688V30.1163H87.6548V16.7688H91.0278ZM99.5645 30.3331C98.2795 30.3331 97.1231 30.0521 96.0951 29.4899C95.0671 28.9117 94.256 28.1005 93.6617 27.0565C93.0835 26.0125 92.7944 24.8078 92.7944 23.4425C92.7944 22.0773 93.0915 20.8726 93.6858 19.8286C94.2962 18.7845 95.1234 17.9814 96.1674 17.4193C97.2114 16.841 98.3759 16.5519 99.6609 16.5519C100.946 16.5519 102.11 16.841 103.154 17.4193C104.198 17.9814 105.018 18.7845 105.612 19.8286C106.222 20.8726 106.527 22.0773 106.527 23.4425C106.527 24.8078 106.214 26.0125 105.588 27.0565C104.977 28.1005 104.142 28.9117 103.082 29.4899C102.038 30.0521 100.866 30.3331 99.5645 30.3331ZM99.5645 27.3938C100.175 27.3938 100.745 27.2492 101.275 26.9601C101.821 26.6549 102.255 26.2052 102.576 25.6109C102.897 25.0166 103.058 24.2938 103.058 23.4425C103.058 22.1736 102.721 21.2019 102.046 20.5273C101.388 19.8366 100.576 19.4913 99.6127 19.4913C98.649 19.4913 97.8378 19.8366 97.1793 20.5273C96.5368 21.2019 96.2156 22.1736 96.2156 23.4425C96.2156 24.7114 96.5288 25.6912 97.1552 26.3819C97.7977 27.0565 98.6008 27.3938 99.5645 27.3938ZM115.675 16.576C117.266 16.576 118.551 17.082 119.53 18.0939C120.51 19.0897 121 20.4871 121 22.2861V30.1163H117.627V22.7438C117.627 21.6837 117.362 20.8726 116.832 20.3104C116.302 19.7322 115.579 19.4431 114.664 19.4431C113.732 19.4431 112.993 19.7322 112.447 20.3104C111.917 20.8726 111.652 21.6837 111.652 22.7438V30.1163H108.279V16.7688H111.652V18.4312C112.102 17.8529 112.672 17.4032 113.362 17.082C114.069 16.7447 114.84 16.576 115.675 16.576Z" fill="white"/>
<path d="M14.6346 32.0503C20.2344 38.3359 27.7164 38.1801 33.4103 32.3101C36.7513 28.8816 39.01 28.6738 42.3981 31.4789C38.3983 45.3488 22.399 49.0371 9.69369 38.9074C4.51745 41.8164 2.54106 41.5567 0 37.7645C0.14117 37.5048 0.188227 37.0373 0.423511 36.8814C4.09394 34.0243 4.75273 30.6478 3.90571 25.505C2.30578 16.1545 5.88209 8.4663 13.27 3.53131C20.705 -1.50757 28.3282 -1.04004 35.669 4.20663C36.516 4.77805 37.2689 5.50531 38.0689 6.12867C43.6686 3.37547 44.9392 3.47937 48.1861 7.37541C46.8214 8.93382 45.4097 10.5961 43.951 12.2065C39.3394 17.2973 34.6808 22.2843 30.1163 27.3751C28.1399 29.5569 26.2577 30.44 23.7636 28.2582C21.8343 26.5439 19.9521 27.0115 18.1639 28.9335C17.1286 30.0763 15.8111 31.0114 14.6346 32.0503ZM33.222 13.2454C29.1752 8.20656 23.199 7.06372 18.1639 9.81692C13.1288 12.5701 10.3525 18.2843 11.3877 24.6219C13.5994 22.2323 15.6699 20.1544 17.5992 17.9207C19.6227 15.5311 21.6932 14.8039 24.2342 17.0376C25.9753 18.5441 27.6694 18.2324 29.3163 16.622C30.5869 15.3753 31.9515 14.3363 33.222 13.2454Z" fill="#00D392"/>
</svg>
